<?xml version="1.0" encoding="UTF-8"?>
<svg width="273px" height="45px" viewBox="0 0 273 45" version="1.1" xmlns="http://www.w3.org/2000/svg" xmlns:xlink="http://www.w3.org/1999/xlink">
    <title>Logo Ferme Solaire</title>
    <g id="Logos-Final" stroke="none" stroke-width="1" fill="none" fill-rule="evenodd">
        <g id="Logo-Ferme-Solaire" fill="#211F1B" fill-rule="nonzero">
            <g>
                <path d="M113.52331,29.0897066 C112.570741,29.8054873 111.500197,30.3537629 110.358758,30.7104208 C109.305691,31.0255755 108.187896,31.0664296 107.11409,30.8290096 C105.793402,30.5511045 104.832019,29.5628641 104.229941,27.8642886 C108.842637,26.2423765 111.846959,24.4635439 113.242907,22.5277907 C115.126829,20.0002911 115.330759,17.6285143 113.854696,15.4124602 C113.388367,14.7670776 112.750804,14.261015 112.012045,13.9498645 C111.105252,13.5322223 110.120972,13.3034639 109.120613,13.277861 C107.972469,13.2630593 106.844876,13.5790199 105.875945,14.1870421 C104.313698,15.1357529 103.031854,16.702563 102.030413,18.8910662 C101.073667,20.8473023 100.619674,23.005891 100.708512,25.1762748 C100.708512,25.3092381 100.708512,25.4350141 100.734003,25.5643838 C100.282444,26.175296 99.8855096,26.7287106 99.5468406,27.1922851 C99.1462644,27.7456997 98.6655729,28.3386439 98.1448237,28.9315881 C97.7013035,29.4504866 97.2140124,29.9313546 96.6881828,30.3690287 C96.2766952,30.7114003 95.8342016,31.0157398 95.3662812,31.2782098 C94.9804293,31.5071973 94.5340929,31.6173106 94.0844372,31.5944467 C93.651431,31.5503618 93.2442157,31.3702232 92.922766,31.0805617 C91.9516721,30.2109102 91.3908653,28.3530183 91.2403458,25.5068861 C91.0745914,22.8767745 91.2224827,20.236553 91.6809796,17.640493 L88.4035376,16.612723 L81.3570371,28.1805255 L83.1195726,14.1079829 L79.9877946,13.1988018 L70.1554684,28.6153512 L72.6790988,16.9936447 L69.4271479,16.4007005 L69.4271479,16.4007005 C67.255064,20.0640413 64.8326477,23.5771309 62.1767178,26.9155778 C59.3326264,30.3546542 57.5700908,31.6591315 56.8891112,30.78948 C56.3683621,30.1174766 56.2882468,28.536292 56.6888231,26.0459263 C57.2036316,23.0984238 57.9810964,20.2015191 59.0121654,17.3889409 L57.1695146,15.4519898 C55.7121959,15.8730047 54.1903647,16.033648 52.6757773,15.9263452 C54.4771566,13.1185447 55.1581362,10.9444159 54.7187162,9.40395885 C54.1979671,7.50653738 53.0763536,6.47876742 51.3538757,6.28111935 C49.6313978,6.08347128 48.1492657,6.79500433 46.9074793,8.37618889 C46.2950078,9.17106931 45.9078937,10.1124546 45.7858658,11.1037323 C45.6311574,12.1602155 45.6993458,13.2368492 45.9861539,14.2661014 C46.2870833,15.3109236 46.852237,16.2631016 47.6285165,17.0331743 C47.9563535,17.3762488 48.3300178,17.6736578 48.7392053,17.9172003 L48.6299572,18.0609443 C47.4282284,19.6025993 46.2665573,21.065195 45.1850014,22.4487315 C44.1034455,23.8322679 43.0218896,25.0972156 41.9403337,26.2435744 C40.9787175,27.2885649 39.9191538,28.2415143 38.7757813,29.0897066 C37.8232124,29.8054873 36.7526677,30.3537629 35.6112289,30.7104208 C34.5581618,31.0255755 33.4403676,31.0664296 32.3665613,30.8290096 C31.0434458,30.5511045 30.0820628,29.5628641 29.4824123,27.8642886 C34.0951085,26.2423765 37.0994304,24.4635439 38.495378,22.5277907 C40.3768725,19.9978954 40.5771606,17.6261186 39.0962423,15.4124602 C38.6299133,14.7670776 37.9923505,14.261015 37.2535916,13.9498645 C36.3490362,13.5331811 35.3673349,13.3044458 34.3694426,13.277861 C33.2212989,13.2630593 32.093705,13.5790199 31.1247749,14.1870421 C30.0204976,14.8884869 29.0846763,15.8193314 28.3826484,16.9145855 C25.1052063,19.4301064 22.2319821,21.1694094 19.8285246,22.1324945 C17.1609693,23.1799404 14.3233617,23.7424162 11.4528392,23.7927383 L11.4164232,23.7675831 C11.5353822,23.254896 11.7781557,22.3061853 12.1447437,20.9214509 C17.0718316,18.7652902 20.9173636,14.9129496 23.6412822,9.42192686 C24.5241194,7.80130885 24.976402,5.98635261 24.9559006,4.1465202 C24.915843,2.40721718 24.2275801,1.22132876 22.9530193,0.588854939 C21.0703109,-0.359855796 19.347833,-0.162207726 17.8256433,1.18179915 C16.3034535,2.52580602 14.8213214,4.66040518 13.3792469,7.546067 C11.9784438,10.5119859 10.6164846,14.5044769 9.29336908,19.52354 C6.46271512,21.1502341 3.3295607,22.1987763 0.0801152507,22.6068499 L0,25.5320413 C2.91189871,25.2611345 5.74978964,24.470911 8.3756853,23.1997941 C7.05378366,28.8525289 6.29268878,33.7146714 6.09240066,37.8257513 C5.99456348,39.5107007 6.3983716,41.1870876 7.25407179,42.6483642 C8.09528192,44.0858047 9.25695306,44.8620226 10.6990276,44.9806114 C12.2630185,45.1219095 13.7954399,44.4844041 14.7849054,43.280838 C15.9065189,42.0158904 16.6057065,40.405957 16.8679019,38.3791659 C17.1483053,35.8888002 17.06819,33.754201 16.6275561,32.014898 C16.1869222,30.275595 15.2255392,28.4572328 13.7434071,26.5202817 C16.7617647,26.1895312 19.6937952,25.3188374 22.3958542,23.9508568 C23.7460039,23.2578514 25.0532166,22.4862622 26.3105767,21.6401712 C26.0101925,22.794184 25.8874322,23.9862223 25.9464164,25.1762748 C25.9695379,27.0852368 26.469889,28.9590402 27.4030573,30.6313615 C28.2187814,32.0901347 29.6113783,33.1494453 31.2485894,33.556553 C32.0219934,33.7436252 32.815698,33.8365522 33.6119893,33.8332603 C34.3662346,33.8347031 35.1184011,33.7551761 35.8552163,33.5960826 C36.6176061,33.4161775 37.3523667,33.1370235 38.0401777,32.7659607 C38.7891685,32.3779725 39.5117372,31.9422232 40.2032894,31.4614834 C40.966843,30.9142431 41.6897271,30.3137755 42.3664012,29.6646828 C43.1280269,28.9526052 43.8501162,28.2004467 44.529513,27.4114948 C45.2104926,26.6209025 45.9861539,25.7117214 46.77274,24.6839514 C47.5593261,23.6561815 48.3349874,22.6284115 49.0960823,21.6006416 C49.7479291,20.7202092 50.4325503,19.7463433 51.168154,18.6646693 C52.5793186,18.8834508 54.0171889,18.8737405 55.4251871,18.6359205 C53.9685462,23.498063 53.2620753,27.0161987 53.3021329,29.1903274 C53.3421906,31.3644562 54.0304534,32.8270519 55.3450718,33.5781146 C56.3064548,34.0919996 57.3880107,34.0919996 58.5897395,33.538585 C59.7914682,32.9851704 61.1133699,31.9178708 62.5153868,30.3762159 C64.0326094,28.6887967 65.4375631,26.9062379 66.7214374,25.039718 C67.3065215,24.1940238 67.9134553,23.2848427 68.5422386,22.3121746 L66.9144424,32.4712854 L69.7585338,34.05247 L79.9149626,17.9423555 L77.9120813,33.0031384 L80.8253632,34.2285564 L88.472728,21.2233134 C87.9519789,27.2713444 88.793189,31.303365 90.9963584,33.2798457 C91.8559549,34.0986298 93.0062807,34.552695 94.2009684,34.5447933 C95.3225819,34.5052637 96.6044259,33.8727899 98.0865581,32.6078422 C99.3071299,31.5236435 100.412601,30.3195605 101.38585,29.014241 C101.582683,29.5763682 101.832625,30.1189929 102.132378,30.6349551 C102.948102,32.0937283 104.340699,33.1530389 105.97791,33.5601466 C106.751314,33.7472188 107.545019,33.8401458 108.34131,33.8368539 C109.095555,33.8382967 109.847722,33.7587697 110.584537,33.5996762 C111.359115,33.4168349 112.105108,33.1315579 112.802273,32.7515863 C113.551264,32.3635981 114.273833,31.9278488 114.965385,31.447109 C115.728938,30.8998686 116.451822,30.2994011 117.128497,29.6503084 C117.889591,28.9315881 119.291608,27.3971204 119.291608,27.3971204 L116.687863,26.211232 C115.683847,27.2237594 114.627594,28.1845264 113.52331,29.0897066 Z M15.8628196,8.92960348 L15.8955941,8.89007387 C17.7783025,5.05570132 19.3806075,3.15827985 20.7025091,3.15827985 C21.5437192,3.15827985 21.9843531,3.71169444 22.0244107,4.77899402 C22.0342287,5.95402997 21.7004293,7.10692801 21.0630277,8.09948159 C18.579455,12.4872687 15.8555364,15.6460443 12.9313298,17.5470593 C14.0747929,13.5545683 15.0216095,10.6689065 15.8628196,8.92960348 Z M13.8599384,38.1024586 L13.8599384,38.1024586 C13.7866995,39.0483682 13.4695433,39.96008 12.938613,40.7509427 C12.5076939,41.4456862 11.7597144,41.8885584 10.9357317,41.9368311 C10.2948097,41.9751629 9.77406059,41.658926 9.37348433,40.9881204 C8.97290808,40.316117 8.81267758,39.4069358 8.8527352,38.2210474 C8.97290808,35.2563264 9.58105566,31.4614834 10.6152707,26.796989 L10.695386,26.796989 C12.1149744,28.2526059 13.08725,30.0755794 13.4994197,32.0544276 C14.0091088,34.029338 14.1314784,36.0821993 13.8599384,38.1024586 L13.8599384,38.1024586 Z M28.7213174,25.255334 C28.7159874,23.7030963 29.0436274,22.1673203 29.6827004,20.7489581 C30.36368,19.1282439 31.0847173,17.9028259 32.0060427,17.2308224 L32.0060427,17.2308224 C32.6677364,16.7383482 33.4620191,16.449575 34.2893273,16.4007005 C34.9762804,16.3276973 35.6582312,16.5764006 36.1319781,17.072704 C36.6490269,17.6415196 36.8443696,18.4274192 36.6527272,19.1677735 C36.4212584,20.1193626 35.9153068,20.9843697 35.1960863,21.6581392 C33.953086,22.9230868 31.7899743,24.1485049 28.706751,25.3343933 L28.7213174,25.255334 Z M50.0319741,15.531049 C49.1791103,15.0472331 48.6020075,14.2002905 48.4697267,13.2383314 C48.2900586,12.0774718 48.593432,10.8942296 49.3109368,9.95737345 L49.3109368,9.95737345 C49.6370885,9.40732332 50.278829,9.11946808 50.9132418,9.23865319 C51.5107733,9.30907279 51.9711442,9.79214788 52.0057225,10.385012 C52.1149706,11.5493388 51.4740486,13.2383314 50.0319741,15.531049 Z M103.468846,25.255334 C103.463516,23.7030963 103.791156,22.1673203 104.430229,20.7489581 C105.111209,19.1282439 105.832246,17.9028259 106.753572,17.2308224 L106.753572,17.2308224 C107.415265,16.7383482 108.209548,16.449575 109.036856,16.4007005 C109.723809,16.3276973 110.40576,16.5764006 110.879507,17.072704 C111.396556,17.6415196 111.591899,18.4274192 111.400256,19.1677735 C111.168787,20.1193626 110.662836,20.9843697 109.943615,21.6581392 C108.700615,22.9230868 106.537503,24.1485049 103.45428,25.3343933 L103.468846,25.255334 Z" id="Shape"></path>
                <polygon id="Path" points="230.619032 10.4317288 222.046701 4.26510904 220.36428 6.4392378 228.936612 12.5267984"></polygon>
                <path d="M270.396254,26.2435744 C269.391413,27.2450581 268.335175,28.195017 267.231702,29.0897066 C266.279133,29.8054873 265.208588,30.3537629 264.06715,30.7104208 C263.014082,31.0255755 261.896288,31.0664296 260.822482,30.8290096 C259.499366,30.5511045 258.537983,29.5628641 257.938333,27.8642886 C262.551029,26.2423765 265.555351,24.4635439 266.951299,22.5277907 C268.835221,19.9978954 269.035509,17.6261186 267.552163,15.4124602 C267.085834,14.7670776 266.448271,14.261015 265.709512,13.9498645 C264.804957,13.5331811 263.823255,13.3044458 262.825363,13.277861 C261.67722,13.2630593 260.549626,13.5790199 259.580696,14.1870421 C258.018448,15.1357529 256.736604,16.702563 255.735163,18.8910662 C255.698747,18.9701254 255.665973,19.0491847 255.633199,19.1282439 C253.939323,21.8281225 252.087464,24.4283073 250.087038,26.9155778 C247.242947,30.3546542 245.480411,31.6591315 244.799432,30.78948 C244.278683,30.1174766 244.198567,28.536292 244.599144,26.0459263 C245.113952,23.0984238 245.891417,20.2015191 246.922486,17.3889409 L245.079835,15.4519898 C243.621355,15.8734319 242.098252,16.0340793 240.582456,15.9263452 C242.386263,13.1185447 243.067243,10.9444159 242.625395,9.40395885 C242.104646,7.50653738 240.983033,6.47876742 239.260555,6.28111935 C237.538077,6.08347128 236.055945,6.79500433 234.814158,8.37618889 C234.201687,9.17106931 233.814573,10.1124546 233.692545,11.1037323 C233.537836,12.1602155 233.606025,13.2368492 233.892833,14.2661014 C234.193762,15.3109236 234.758916,16.2631016 235.535195,17.0331743 C235.890791,17.4060972 236.300727,17.7246357 236.751491,17.9782915 C235.438086,19.5618718 233.577227,21.6844923 231.168914,24.3461529 C227.850201,28.0331878 225.810903,30.0887278 225.051022,30.5127727 C224.129697,31.0661873 223.56889,30.7499504 223.368602,29.5245324 C223.168314,28.4967624 223.208372,27.0090115 223.528833,25.0181564 C223.849294,23.0273013 224.4101,20.3464747 225.211253,16.9541151 L222.487334,16.3216413 C222.477136,16.349439 222.463693,16.3759707 222.447277,16.4007005 C220.282107,20.0591585 217.87336,23.5718314 215.236904,26.9155778 C212.993677,29.6826508 211.391372,31.0661873 210.470047,31.0661873 C210.266708,31.08062 210.07009,30.9910696 209.949298,30.8290096 C209.027972,29.6431212 209.264676,26.0063967 210.677618,19.8793066 C211.118587,17.9314556 211.735262,16.0264407 212.520269,14.1870421 L209.916523,12.8430353 L207.192605,16.8355263 C204.585217,14.5032791 201.824883,13.6731572 198.860619,14.3846902 C197.243747,14.9165432 195.892713,16.0377468 194.829365,17.6979906 L194.465205,18.1400035 C193.623995,19.1282439 192.902957,19.9583658 192.342151,20.6303692 L190.058866,23.3579126 C189.097483,24.5042714 188.238065,25.4529821 187.535236,26.2327936 C186.832406,27.0126051 186.053103,27.8535078 185.248309,28.6836297 C184.443515,29.5137516 183.769819,30.185755 183.209012,30.6601104 C182.817366,31.0288691 182.370221,31.3355626 181.883469,31.5692915 C181.322662,31.7669395 180.925727,31.6878803 180.725439,31.3321138 C180.635242,31.206579 180.554893,31.0744293 180.485093,30.9368177 C180.346333,30.6273436 180.224766,30.3106371 180.120933,29.9881069 C179.952326,29.4592654 179.830484,28.9169983 179.756773,28.3673927 C179.678366,27.552716 179.666189,26.7331517 179.720357,25.9165567 C179.767165,24.8029959 179.888819,23.6937287 180.084517,22.5960691 L180.68174,19.5127592 C181.967226,18.2478116 182.968666,17.2200416 183.686062,16.4689789 C184.403458,15.7179163 185.292008,14.6901463 186.333507,13.3856691 C187.297693,12.2000347 188.105312,10.89831 188.736964,9.51176689 C189.26998,8.32015347 189.607997,7.05261988 189.738405,5.75645356 C189.858578,4.37291708 189.65829,3.26608788 189.133899,2.39643638 C188.718451,1.61720168 187.992597,1.04417282 187.131018,0.815251819 C186.290168,0.627132358 185.411209,0.696070995 184.611029,1.01289989 C183.711833,1.35352566 182.942001,1.9612733 182.407859,2.7522029 C181.169715,4.49390165 179.653594,9.77409978 177.859498,18.5927973 C174.703443,22.4547208 171.853282,24.6192666 169.309016,25.0864348 L169.309016,24.6228602 C169.509304,22.2115465 169.108728,20.4327211 168.147345,19.2863623 C167.185962,18.1400035 165.944175,17.784237 164.462043,18.208282 C163.663187,18.4295215 162.95095,18.8843057 162.419104,19.5127592 C161.826308,20.1629234 161.412531,20.9523474 161.217376,21.8054768 C161.027802,22.7420057 161.199215,23.7146394 161.698067,24.5330202 C162.328462,25.5833475 163.263268,26.423221 164.381928,26.9443266 C164.502101,27.0233859 164.86262,27.1815043 165.474409,27.4582116 C164.43291,29.4742219 163.111009,30.6205807 161.468646,30.8577584 C160.43712,31.0311931 159.376525,30.8497799 158.464324,30.3438734 C157.601308,29.8993725 156.921627,29.1727563 156.541558,28.2883335 C155.930618,26.7261573 155.803867,25.0200615 156.177398,23.3866614 C156.505354,21.6357455 157.292603,20.0002247 158.460683,18.6431077 C159.902757,16.9421364 161.865581,15.9538961 164.349154,15.6783867 L164.06875,12.7531952 C162.488707,12.7724645 160.936415,13.1655892 159.542239,13.899554 C158.307484,14.5311766 157.214947,15.4027302 156.330345,16.4617917 C153.34636,17.049145 150.421469,17.8982093 147.5905,18.9988742 C144.63017,20.0996266 141.807663,21.5320681 139.178398,23.2680725 C139.137127,23.1890133 138.976897,22.9494399 138.697707,22.5493523 C138.417304,22.1540562 138.217015,21.8773489 138.1369,21.75876 C138.056785,21.6401712 137.896554,21.3634639 137.656209,20.9681677 C137.471543,20.6958064 137.306067,20.4112413 137.160951,20.1164842 L136.796791,19.2863623 C134.84125,14.3487542 140.543999,12.9185009 143.806875,15.6101082 C144.287567,15.8868155 144.928489,16.3288285 145.729641,16.8750559 L147.492177,14.6218679 L146.650966,14.0289237 C146.130217,13.6336275 145.729641,13.3569202 145.489295,13.1988018 C145.24895,13.0406833 144.808316,12.8035057 144.167394,12.4477391 C143.66404,12.1463552 143.126164,11.9050889 142.565089,11.7290189 C137.171876,9.46145647 131.389011,15.3765242 134.152987,20.5836524 C134.402288,21.2166565 134.710726,21.8254004 135.074313,22.4020146 C135.514947,23.1530773 135.835408,23.6669623 135.995638,23.9436696 C136.155869,24.2203769 136.47633,24.6623898 136.916963,25.2876765 C134.833967,27.0844771 133.512065,28.8812777 132.991316,30.7427632 C132.653796,32.3449545 133.209242,34.0030306 134.447957,35.0910207 C135.760512,35.9484902 137.398245,36.1668883 138.894354,35.6839649 C140.455387,35.2048181 141.536943,34.4142258 142.139021,33.3121881 C142.427751,32.7560421 142.578758,32.1402707 142.579655,31.5153875 C142.56902,30.828422 142.446051,30.1476576 142.215495,29.4993771 C141.972721,28.7806569 141.729948,28.1481831 141.487174,27.6019557 C141.181194,26.9550267 140.830784,26.3294816 140.438393,25.7296894 C142.932912,24.0826347 145.606786,22.7169122 148.40986,21.6581392 C150.31135,20.9128855 152.257155,20.2828343 154.236424,19.7714985 C153.762488,20.8216651 153.409471,21.9209987 153.184001,23.0488629 C152.740578,25.1862262 152.906984,27.4030969 153.664692,29.4526603 C154.298909,31.0685044 155.550235,32.3743035 157.149706,33.0893848 C158.715775,33.7957226 160.465956,34.0029759 162.156909,33.682329 C163.527262,33.405297 164.782598,32.7308448 165.762095,31.7453779 C166.901325,30.6685484 167.78975,29.3602217 168.365841,27.9110054 C171.082476,27.8319462 173.94599,26.2687296 176.956381,23.2213557 C176.643979,24.9911839 176.56929,26.7939215 176.734243,28.5830088 C176.840528,29.8372458 177.109786,31.0727928 177.535396,32.2592629 C177.782539,32.8972815 178.182334,33.4668773 178.700708,33.9195067 C179.308711,34.3835649 180.055124,34.6362491 180.823762,34.638227 C181.663422,34.6592925 182.493044,34.4543105 183.223578,34.0452828 C183.665284,33.7943425 184.082241,33.5031911 184.469006,33.1756312 C184.949698,32.7803351 185.470447,32.3059797 186.071311,31.7130355 C186.672176,31.1200913 187.229341,30.5271471 187.793789,29.9342029 C188.358238,29.3412587 188.991876,28.6297256 189.716555,27.7996037 C190.441234,26.9694819 191.078515,26.2579488 191.599264,25.625475 L192.691744,24.3174041 C192.691744,24.4395866 192.65897,24.5545818 192.648045,24.6767642 C192.123654,29.8551437 193.288967,32.7408055 196.129417,33.3014073 C196.46803,33.3383052 196.810705,33.2977262 197.130858,33.1828184 C197.562469,33.0352684 197.967969,32.8218524 198.332586,32.5503446 C198.765292,32.2445929 199.1799,31.9146393 199.574373,31.5621043 C200.059147,31.1111772 200.515217,30.6311153 200.939974,30.1246638 C201.457081,29.5317196 201.901357,28.978305 202.301933,28.5039496 C202.702509,28.0295942 203.183201,27.3971204 203.758574,26.6065281 C204.333947,25.8159358 204.760014,25.1690876 205.120533,24.669577 C205.481052,24.1700665 205.961743,23.4836886 206.577174,22.6535667 L207.899076,20.7561453 C206.172956,28.0295942 206.442435,32.2987925 208.736644,33.5242106 C209.167302,33.758285 209.650645,33.8818529 210.142303,33.8835707 C211.944896,33.9231003 214.06795,32.5000342 216.551523,29.653902 C218.036008,27.9212271 219.418451,26.1058665 220.692024,24.2167833 C220.575493,24.8025403 220.495378,25.2948637 220.437112,25.6542238 C220.356997,26.1681088 220.276882,26.761053 220.236824,27.4510244 C220.195768,28.0492728 220.195768,28.6495767 220.236824,29.2478251 C220.270312,29.7334382 220.350794,30.214777 220.47717,30.6852656 C220.676545,31.4973755 221.060042,32.2542607 221.598783,32.8989239 C221.973328,33.3598826 222.496274,33.6806723 223.080916,33.8081051 C223.489566,33.887889 223.907051,33.9144685 224.322702,33.8871643 C224.60757,33.8610251 224.889254,33.8080782 225.163912,33.7290458 C226.20541,33.3744772 228.488695,31.2794076 232.013766,27.4438372 C235.18196,23.9364824 237.660677,21.0340504 239.449918,18.7365413 C240.748903,18.9041873 242.066015,18.8787495 243.357357,18.6610757 C241.900716,23.5232182 241.194245,27.0413539 241.234303,29.2154826 C241.274361,31.3896114 241.962624,32.8522071 243.277242,33.6032698 C244.238625,34.1171548 245.320181,34.1171548 246.52191,33.5637402 C247.723638,33.0103256 249.04554,31.943026 250.447557,30.4013711 C251.877757,28.8075342 253.205876,27.1272614 254.424187,25.3703293 C254.467981,27.2083023 254.958817,29.0089621 255.855336,30.6205807 C256.67106,32.0793539 258.063657,33.1386645 259.700868,33.5457722 C260.475151,33.7355574 261.270101,33.8309008 262.06791,33.8296667 C262.822155,33.8311095 263.574322,33.7515825 264.311137,33.592489 C265.079081,33.4103888 265.818838,33.1275718 266.510665,32.7515863 C267.259655,32.3635981 267.982224,31.9278488 268.673776,31.447109 C269.43733,30.8998686 270.160214,30.2994011 270.836888,29.6503084 C271.597983,28.9315881 273,27.3971204 273,27.3971204 L270.396254,26.2435744 Z M139.72828,31.9358388 L139.72828,31.9358388 C139.348324,32.6898865 138.578407,33.1761382 137.725399,33.2007865 C136.804074,33.2798457 136.203209,33.0031384 135.922806,32.3311349 C135.361999,31.0661873 136.042979,29.5245324 137.965745,27.7456997 L138.329905,27.4294628 C138.876522,28.2967973 139.34563,29.2094198 139.731922,30.1570062 C139.972119,30.7265127 139.970808,31.3672946 139.72828,31.9358388 Z M166.446717,24.2275641 C166.435883,24.4004951 166.405344,24.5716714 166.355676,24.7378555 L166.355676,24.7378555 C165.784036,24.6281714 165.252333,24.3701655 164.815279,23.9903864 C163.813838,23.2393237 163.573492,22.4092018 164.054184,21.5000207 C164.374645,20.9070765 164.815279,20.6303692 165.336028,20.7094284 C165.856777,20.7884877 166.13718,21.1047246 166.337468,21.7371984 C166.545093,22.5513556 166.582267,23.3987467 166.446717,24.2275641 L166.446717,24.2275641 Z M184.712994,4.22557942 L184.712994,4.22557942 C185.153628,3.67216483 185.594261,3.47451676 186.074953,3.5931056 C186.555644,3.71169444 186.803273,4.10699058 186.755933,4.7394644 C186.672176,7.546067 184.869583,11.1037323 181.293529,15.4124602 C182.54624,9.28537001 183.711553,5.60911591 184.712994,4.22557942 L184.712994,4.22557942 Z M196.810397,30.0384173 L196.810397,30.0384173 C196.286006,29.9198285 195.969186,29.2873547 195.808956,28.1014663 C195.64122,27.0286007 195.654756,25.9357246 195.849014,24.8672251 C196.446236,20.6375564 197.669815,18.1076611 199.450558,17.3206624 C201.231302,16.5336638 203.33979,17.1230144 205.699548,19.2180839 C200.524831,26.5598113 197.56785,30.1570062 196.810397,30.0384173 Z M237.232182,9.99690306 L237.232182,9.95737345 C237.558334,9.40732332 238.200074,9.11946808 238.834487,9.23865319 C239.432019,9.30907279 239.89239,9.79214788 239.926968,10.385012 C240.047141,11.5313708 239.406219,13.2311442 237.964144,15.5238618 C237.11128,15.0400459 236.534178,14.1931033 236.401897,13.2311442 C236.187042,12.1710318 236.467446,11.1037323 237.228541,9.99690306 L237.232182,9.99690306 Z M257.18088,25.255334 C257.17555,23.7030963 257.50319,22.1673203 258.142263,20.7489581 C258.823242,19.1282439 259.544279,17.9028259 260.465605,17.2308224 L260.465605,17.2308224 C261.127299,16.7383482 261.921581,16.449575 262.74889,16.4007005 C263.435843,16.3276973 264.117793,16.5764006 264.59154,17.072704 C265.108589,17.6415196 265.303932,18.4274192 265.112289,19.1677735 C264.880821,20.1193626 264.374869,20.9843697 263.655648,21.6581392 C262.415076,22.9230868 260.251964,24.1485049 257.166313,25.3343933 L257.18088,25.255334 Z" id="Shape"></path>
            </g>
        </g>
    </g>
</svg>